<?xml version="1.0" encoding="UTF-8" standalone="no"?>
<!DOCTYPE svg PUBLIC "-//W3C//DTD SVG 1.1//EN" "http://www.w3.org/Graphics/SVG/1.1/DTD/svg11.dtd">
<svg version="1.1" xmlns="http://www.w3.org/2000/svg" xmlns:xlink="http://www.w3.org/1999/xlink" preserveAspectRatio="xMidYMid meet" viewBox="0 0 640 640" width="640" height="640"><defs><path d="M210.23 536.16L443.15 536.16L586.49 316.77L443.15 111.73L210.23 111.73L68.91 316.77L210.23 536.16Z" id="aFHNHOkP2"></path><path d="M638.41 319.72C638.41 355.88 608.25 385.25 571.09 385.25C533.94 385.25 503.78 355.88 503.78 319.72C503.78 283.55 533.94 254.19 571.09 254.19C608.25 254.19 638.41 283.55 638.41 319.72Z" id="aBPQCtGZC"></path><path d="M503.78 532.22C503.78 568.39 473.61 597.75 436.46 597.75C399.31 597.75 369.14 568.39 369.14 532.22C369.14 496.05 399.31 466.69 436.46 466.69C473.61 466.69 503.78 496.05 503.78 532.22Z" id="jZ0ssTlKW"></path><path d="M136.22 319.72C136.22 355.88 106.06 385.25 68.91 385.25C31.75 385.25 1.59 355.88 1.59 319.72C1.59 283.55 31.75 254.19 68.91 254.19C106.06 254.19 136.22 283.55 136.22 319.72Z" id="bfE2L6Bhr"></path><path d="M503.78 107.78C503.78 143.95 473.61 173.31 436.46 173.31C399.31 173.31 369.14 143.95 369.14 107.78C369.14 71.61 399.31 42.25 436.46 42.25C473.61 42.25 503.78 71.61 503.78 107.78Z" id="d19z2iaucf"></path><path d="M270.86 107.78C270.86 143.95 240.69 173.31 203.54 173.31C166.39 173.31 136.22 143.95 136.22 107.78C136.22 71.61 166.39 42.25 203.54 42.25C240.69 42.25 270.86 71.61 270.86 107.78Z" id="bcO4Eztrl"></path><path d="M136.22 532.22C136.22 568.39 166.39 597.75 203.54 597.75C240.69 597.75 270.86 568.39 270.86 532.22C270.86 496.05 240.69 466.69 203.54 466.69C166.39 466.69 136.22 496.05 136.22 532.22Z" id="b2sVP16Og9"></path><path d="M386.24 319.72C386.24 355.88 356.07 385.25 318.92 385.25C281.77 385.25 251.6 355.88 251.6 319.72C251.6 283.55 281.77 254.19 318.92 254.19C356.07 254.19 386.24 283.55 386.24 319.72Z" id="a3gZbQqWc4"></path><path d="M269.66 190.28L238.57 178.12L233.56 211.12L245.29 204.35L263.13 235.25L251.4 242.02L282.48 254.19L287.5 221.19L275.76 227.96L257.93 197.06L269.66 190.28Z" id="ad5TaUcxK"></path><path d="M385.81 400.28L354.73 388.12L349.71 421.12L361.45 414.35L379.28 445.25L367.55 452.02L398.63 464.19L403.65 431.19L391.92 437.96L374.08 407.06L385.81 400.28Z" id="a1dlTx4gMu"></path><path d="M413.21 211.13L408.2 178.13L377.11 190.29L388.84 197.06L371 227.96L359.27 221.18L364.28 254.19L395.37 242.03L383.63 235.26L401.48 204.36L413.21 211.13Z" id="a1QeCYWurR"></path><path d="M278.57 421.13L273.56 388.13L242.48 400.29L254.21 407.06L236.37 437.96L224.63 431.18L229.64 464.19L260.73 452.03L249 445.26L266.84 414.36L278.57 421.13Z" id="k70TDaoRH"></path><path d="M428.17 303.1L402.09 323.94L428.16 344.78L428.16 331.24L463.84 331.24L463.84 344.79L489.92 323.95L463.85 303.1L463.84 316.65L428.17 316.65L428.17 303.1Z" id="at2cegtXC"></path><path d="M169.17 298.87L143.09 319.71L169.17 340.56L169.17 327.01L204.85 327.01L204.85 340.56L230.92 319.72L204.85 298.88L204.85 312.42L169.17 312.42L169.17 298.87Z" id="b3kp9N5Zb"></path></defs><g><g><g><g><use xlink:href="#aFHNHOkP2" opacity="1" fill-opacity="0" stroke="#102bb7" stroke-width="4" stroke-opacity="1"></use></g></g><g><use xlink:href="#aBPQCtGZC" opacity="1" fill="#07e09c" fill-opacity="1"></use></g><g><use xlink:href="#jZ0ssTlKW" opacity="1" fill="#07e09c" fill-opacity="1"></use></g><g><use xlink:href="#bfE2L6Bhr" opacity="1" fill="#07e09c" fill-opacity="1"></use></g><g><use xlink:href="#d19z2iaucf" opacity="1" fill="#07e09c" fill-opacity="1"></use></g><g><use xlink:href="#bcO4Eztrl" opacity="1" fill="#07e09c" fill-opacity="1"></use></g><g><use xlink:href="#b2sVP16Og9" opacity="1" fill="#07e09c" fill-opacity="1"></use></g><g><use xlink:href="#a3gZbQqWc4" opacity="1" fill="#07e09c" fill-opacity="1"></use></g><g><use xlink:href="#ad5TaUcxK" opacity="1" fill="#102bb7" fill-opacity="1"></use></g><g><use xlink:href="#a1dlTx4gMu" opacity="1" fill="#102bb7" fill-opacity="1"></use></g><g><use xlink:href="#a1QeCYWurR" opacity="1" fill="#102bb7" fill-opacity="1"></use></g><g><use xlink:href="#k70TDaoRH" opacity="1" fill="#102bb7" fill-opacity="1"></use></g><g><use xlink:href="#at2cegtXC" opacity="1" fill="#102bb7" fill-opacity="1"></use></g><g><use xlink:href="#b3kp9N5Zb" opacity="1" fill="#102bb7" fill-opacity="1"></use></g></g></g></svg>